<?xml version="1.0" encoding="UTF-8" standalone="no"?>
<svg
        xmlns="http://www.w3.org/2000/svg"
        viewBox="0 0 512 512">
    <defs
            id="defs288"/>
    <g
            transform="matrix(0.92916227,0,0,0.92916227,1.4970094,-1.4970095)">
        <linearGradient
                gradientTransform="matrix(1,0,0,-1,0,554)"
                y2="549.71997"
                x2="275.517"
                y1="4.5700002"
                x1="275.517"
                gradientUnits="userSpaceOnUse"
                id="SVGID_1_">
            <stop
                    id="stop220"
                    style="stop-color:#E09B3D"
                    offset="0"/>
            <stop
                    id="stop222"
                    style="stop-color:#C74C4D"
                    offset="0.3"/>
            <stop
                    id="stop224"
                    style="stop-color:#C21975"
                    offset="0.6"/>
            <stop
                    id="stop226"
                    style="stop-color:#7024C4"
                    offset="1"/>
        </linearGradient>
        <path
                id="path229"
                d="M 386.878,0 H 164.156 C 73.64,0 0,73.64 0,164.156 v 222.722 c 0,90.516 73.64,164.156 164.156,164.156 h 222.722 c 90.516,0 164.156,-73.64 164.156,-164.156 V 164.156 C 551.033,73.64 477.393,0 386.878,0 Z M 495.6,386.878 C 495.6,446.923 446.923,495.6 386.878,495.6 H 164.156 C 104.111,495.6 55.434,446.923 55.434,386.878 V 164.156 c 0,-60.046 48.677,-108.722 108.722,-108.722 h 222.722 c 60.045,0 108.722,48.676 108.722,108.722 z"
                style="fill:url(#SVGID_1_)"/>
        <linearGradient
                gradientTransform="matrix(1,0,0,-1,0,554)"
                y2="549.71997"
                x2="275.517"
                y1="4.5700002"
                x1="275.517"
                gradientUnits="userSpaceOnUse"
                id="SVGID_2_">
            <stop
                    id="stop231"
                    style="stop-color:#E09B3D"
                    offset="0"/>
            <stop
                    id="stop233"
                    style="stop-color:#C74C4D"
                    offset="0.3"/>
            <stop
                    id="stop235"
                    style="stop-color:#C21975"
                    offset="0.6"/>
            <stop
                    id="stop237"
                    style="stop-color:#7024C4"
                    offset="1"/>
        </linearGradient>
        <path
                id="path240"
                d="M 275.517,133 C 196.933,133 133,196.933 133,275.516 c 0,78.583 63.933,142.517 142.517,142.517 78.584,0 142.517,-63.933 142.517,-142.517 C 418.034,196.932 354.101,133 275.517,133 Z m 0,229.6 c -48.095,0 -87.083,-38.988 -87.083,-87.083 0,-48.095 38.989,-87.083 87.083,-87.083 48.095,0 87.083,38.988 87.083,87.083 0,48.094 -38.989,87.083 -87.083,87.083 z"
                style="fill:url(#SVGID_2_)"/>
        <linearGradient
                gradientTransform="matrix(1,0,0,-1,0,554)"
                y2="549.71997"
                x2="418.31"
                y1="4.5700002"
                x1="418.31"
                gradientUnits="userSpaceOnUse"
                id="SVGID_3_">
            <stop
                    id="stop242"
                    style="stop-color:#E09B3D"
                    offset="0"/>
            <stop
                    id="stop244"
                    style="stop-color:#C74C4D"
                    offset="0.3"/>
            <stop
                    id="stop246"
                    style="stop-color:#C21975"
                    offset="0.6"/>
            <stop
                    id="stop248"
                    style="stop-color:#7024C4"
                    offset="1"/>
        </linearGradient>
        <circle
                id="circle251"
                r="34.150002"
                cy="134.07001"
                cx="418.31"
                style="fill:url(#SVGID_3_)"/>
    </g>
    <g
            transform="matrix(0.92916227,0,0,0.92916227,23.787282,-23.787281)"
            id="g255"/>
    <g
            transform="matrix(0.92916227,0,0,0.92916227,23.787282,-23.787281)"
            id="g257"/>
    <g
            transform="matrix(0.92916227,0,0,0.92916227,23.787282,-23.787281)"
            id="g259"/>
    <g
            transform="matrix(0.92916227,0,0,0.92916227,23.787282,-23.787281)"
            id="g261"/>
    <g
            transform="matrix(0.92916227,0,0,0.92916227,23.787282,-23.787281)"
            id="g263"/>
    <g
            transform="matrix(0.92916227,0,0,0.92916227,23.787282,-23.787281)"
            id="g265"/>
    <g
            transform="matrix(0.92916227,0,0,0.92916227,23.787282,-23.787281)"
            id="g267"/>
    <g
            transform="matrix(0.92916227,0,0,0.92916227,23.787282,-23.787281)"
            id="g269"/>
    <g
            transform="matrix(0.92916227,0,0,0.92916227,23.787282,-23.787281)"
            id="g271"/>
    <g
            transform="matrix(0.92916227,0,0,0.92916227,23.787282,-23.787281)"
            id="g273"/>
    <g
            transform="matrix(0.92916227,0,0,0.92916227,23.787282,-23.787281)"
            id="g275"/>
    <g
            transform="matrix(0.92916227,0,0,0.92916227,23.787282,-23.787281)"
            id="g277"/>
    <g
            transform="matrix(0.92916227,0,0,0.92916227,23.787282,-23.787281)"
            id="g279"/>
    <g
            transform="matrix(0.92916227,0,0,0.92916227,23.787282,-23.787281)"
            id="g281"/>
    <g
            transform="matrix(0.92916227,0,0,0.92916227,23.787282,-23.787281)"
            id="g283"/>
</svg>