<?xml version="1.0" encoding="UTF-8" standalone="no"?>
<svg
        xmlns="http://www.w3.org/2000/svg"
        viewBox="0 0 512 512">
    <defs
            id="defs4">
        <style
                id="style2">.cls-1{fill:none;}.cls-2{fill:#1da1f2;}
        </style>
    </defs>
    <path
            style="fill:#1da1f2;stroke-width:2.0480001"
            d="m 161.01376,464.01324 c 193.20832,0 298.88511,-160.07168 298.88511,-298.88512 0,-4.54657 0,-9.07264 -0.30719,-13.57824 A 213.72928,213.72928 0 0 0 512,97.175483 209.67423,209.67423 0 0 1 451.66592,113.70284 105.41056,105.41056 0 0 0 497.84833,55.601081 210.51392,210.51392 0 0 1 431.14495,81.098681 105.14432,105.14432 0 0 0 252.12928,176.90412 298.22976,298.22976 0 0 1 35.635202,67.151801 105.12384,105.12384 0 0 0 68.157441,207.37836 104.26368,104.26368 0 0 1 20.480001,194.2302 c 0,0.43007 0,0.88063 0,1.3312 A 105.08288,105.08288 0 0 0 104.7552,298.53483 104.87808,104.87808 0 0 1 57.323522,300.33708 105.1648,105.1648 0 0 0 155.46368,373.28684 210.78015,210.78015 0 0 1 25.006081,418.34284 213.83168,213.83168 0 0 1 1.8e-6,416.82731 297.39008,297.39008 0 0 0 161.01376,463.93132"
            class="cls-2"/>
</svg>
